<svg xmlns="http://www.w3.org/2000/svg" viewBox="0 0 23 23.8">
  <defs>
    <style>
      .cls-1 {
        fill: #75b726;
      }

      .cls-2 {
        fill: #fff;
      }
    </style>
  </defs>
  <g id="Group_2" data-name="Group 2" transform="translate(-780 -488.38)">
    <ellipse id="o_2" data-name="o 2" class="cls-1" cx="11.5" cy="11.9" rx="11.5" ry="11.9" transform="translate(780 488.38)"/>
    <path id="mail" class="cls-2" d="M786.344,505a1.312,1.312,0,0,1-1.34-1.279v-6.444a1.312,1.312,0,0,1,1.34-1.278h10.323a1.312,1.312,0,0,1,1.34,1.278v6.444a1.312,1.312,0,0,1-1.34,1.279Zm0-1.085h10.323a.207.207,0,0,0,.146-.059l-3.518-2.994-1.6,1.361a.3.3,0,0,1-.379,0l-1.6-1.361L786.2,503.86A.208.208,0,0,0,786.344,503.919Zm10.526-.737v-5.359l-3.149,2.68Zm-10.73,0,3.149-2.679-3.149-2.679Zm5.365-1.52,5.307-4.516a.208.208,0,0,0-.146-.059H786.344a.208.208,0,0,0-.146.059Z"/>
  </g>
</svg>
