<svg xmlns="http://www.w3.org/2000/svg" viewBox="0 0 23 23.8">
  <defs>
    <style>
      .cls-1 {
        fill: #75b726;
      }

      .cls-2 {
        fill: #fff;
      }
    </style>
  </defs>
  <g id="Group_3" data-name="Group 3" transform="translate(-780 -526.2)">
    <ellipse id="o_3" data-name="o 3" class="cls-1" cx="11.5" cy="11.9" rx="11.5" ry="11.9" transform="translate(780 526.2)"/>
    <path id="phone" class="cls-2" d="M795.231,545.005a10.187,10.187,0,0,1-7.056-3.149l-.04-.043h0a10.152,10.152,0,0,1-3.14-7.254l0-.187.116-.147a6.769,6.769,0,0,1,2.909-2.16,1,1,0,0,1,.365-.064c.3,0,.978.154,1.151.629.305.849.69,1.956.97,3.015a1.339,1.339,0,0,1-.413,1.278l-.988.628a.752.752,0,0,0,.133.339,13.991,13.991,0,0,0,1.319,1.548,13.769,13.769,0,0,0,1.534,1.309.559.559,0,0,0,.309.118l.342-.478.315-.5a1.33,1.33,0,0,1,1.036-.437.985.985,0,0,1,.217.022,14.023,14.023,0,0,1,3.069.992,1.334,1.334,0,0,1,.523,1.5,6.819,6.819,0,0,1-1.539,2.37,6.988,6.988,0,0,1-.617.544L795.6,545l-.373.007Zm-9.121-10.233a9.215,9.215,0,0,0,2.815,6.253l.054.055a9.064,9.064,0,0,0,6.227,2.805c.13-.109.255-.222.372-.338a5.714,5.714,0,0,0,1.286-1.983c-.006,0-.028-.073-.052-.127a13.075,13.075,0,0,0-2.743-.871,1.152,1.152,0,0,0-.131.028l-.562.887a1.368,1.368,0,0,1-1.94.169,14.852,14.852,0,0,1-1.665-1.422,15.227,15.227,0,0,1-1.431-1.679,1.588,1.588,0,0,1-.307-1.224,1.08,1.08,0,0,1,.483-.723l.883-.561a.61.61,0,0,0,.022-.155c-.246-.916-.593-1.927-.88-2.732a.5.5,0,0,0-.152-.032,5.722,5.722,0,0,0-1.942,1.281c-.114.114-.224.236-.336.371Z"/>
  </g>
</svg>
