<svg xmlns="http://www.w3.org/2000/svg" viewBox="0 0 23 23.8">
  <defs>
    <style>
      .cls-1 {
        fill: #75b726;
      }

      .cls-2 {
        fill: #fff;
      }
    </style>
  </defs>
  <g id="Group_1" data-name="Group 1" transform="translate(-780 -452)">
    <ellipse id="o_1" data-name="o 1" class="cls-1" cx="11.5" cy="11.9" rx="11.5" ry="11.9" transform="translate(780 452)"/>
    <path id="adress" class="cls-2" d="M791.146,470.858c-.527-.483-5.153-4.815-5.153-7.942a5.516,5.516,0,1,1,11,0c0,3.127-4.625,7.458-5.153,7.942a.506.506,0,0,1-.7,0Zm-4.08-7.942c0,2.027,2.929,5.283,4.428,6.735,1.5-1.452,4.428-4.708,4.428-6.735a4.44,4.44,0,1,0-8.856,0Zm1.744,0a2.69,2.69,0,1,1,2.684,2.886A2.795,2.795,0,0,1,788.81,462.917Zm1.074,0a1.614,1.614,0,1,0,1.61-1.732A1.676,1.676,0,0,0,789.884,462.917Z"/>
  </g>
</svg>
